<svg width="24" height="21" viewBox="0 0 24 21" fill="none" xmlns="http://www.w3.org/2000/svg">
<path d="M23.3672 10.4805C23.3672 11.1836 22.7812 11.7344 22.1172 11.7344H20.8672L20.8945 17.9883C20.8945 18.0977 20.8867 18.1992 20.875 18.3047V18.9375C20.875 19.8008 20.1758 20.5 19.3125 20.5H18.6875C18.6445 20.5 18.6016 20.4648 18.5586 20.4961C18.5039 20.4648 18.4492 20.5 18.3945 20.5H16.1875C15.3242 20.5 14.625 19.8008 14.625 18.9375V15.5C14.625 14.8086 14.0664 14.25 13.375 14.25H10.875C10.1836 14.25 9.625 14.8086 9.625 15.5V18.9375C9.625 19.8008 8.92578 20.5 8.0625 20.5H5.87891C5.82031 20.5 5.76172 20.4961 5.70312 20.4922C5.65625 20.4961 5.60938 20.5 5.5625 20.5H4.9375C4.07461 20.5 3.375 19.8008 3.375 18.9375V14.5625C3.375 14.5273 3.37617 14.4883 3.37852 14.4531V11.7344H2.12695C1.42266 11.7344 0.875 11.1836 0.875 10.4805C0.875 10.1289 0.992344 9.81641 1.26602 9.54297L11.2812 0.813125C11.5547 0.539141 11.8672 0.5 12.1406 0.5C12.4141 0.5 12.7266 0.578281 12.9648 0.773984L22.9375 9.54297C23.25 9.81641 23.4102 10.1289 23.3672 10.4805Z" fill="#8E8E8E"/>
</svg>
