<svg width="23" height="15" viewBox="0 0 23 15" fill="none" xmlns="http://www.w3.org/2000/svg">
<path d="M9.78606 11.5L7.21006 7.82C8.73006 7.228 9.59406 5.98 9.59406 4.284C9.59406 1.804 7.77006 0.299999 4.82606 0.299999H0.218063V11.5H2.29806V8.236H4.82606C4.97006 8.236 5.11406 8.236 5.25806 8.22L7.54606 11.5H9.78606ZM7.49806 4.284C7.49806 5.692 6.55406 6.524 4.73006 6.524H2.29806V2.06H4.73006C6.55406 2.06 7.49806 2.876 7.49806 4.284ZM15.6652 2.86C14.4972 2.86 13.5052 3.26 12.8332 4.076V2.956H10.9292V14.604H12.9292V10.46C13.6172 11.244 14.5772 11.612 15.6652 11.612C18.1612 11.612 20.0012 9.884 20.0012 7.228C20.0012 4.588 18.1612 2.86 15.6652 2.86ZM15.4412 9.9C14.0012 9.9 12.8972 8.86 12.8972 7.228C12.8972 5.596 14.0012 4.556 15.4412 4.556C16.8812 4.556 17.9692 5.596 17.9692 7.228C17.9692 8.86 16.8812 9.9 15.4412 9.9ZM21.5817 11.612C22.3017 11.612 22.8937 11.052 22.8937 10.284C22.8937 9.484 22.3017 8.956 21.5817 8.956C20.8617 8.956 20.2697 9.484 20.2697 10.284C20.2697 11.052 20.8617 11.612 21.5817 11.612Z" fill="#8E8E8E"/>
</svg>
